<mxfile host="app.diagrams.net" modified="2021-06-21T13:12:07.342Z" agent="5.0 (Macintosh; Intel Mac OS X 10_15_7) AppleWebKit/537.36 (KHTML, like Gecko) Chrome/91.0.4472.101 Safari/537.36" etag="a_HqzcY9Z7eTn0Js4SKk" version="14.8.0" type="github">
  <diagram id="b8zHcWPSXdfKMkxwo-Ee" name="Page-1">
    <mxGraphModel dx="1186" dy="672" grid="1" gridSize="10" guides="1" tooltips="1" connect="1" arrows="1" fold="1" page="1" pageScale="1" pageWidth="850" pageHeight="1100" math="0" shadow="0">
      <root>
        <mxCell id="0" />
        <mxCell id="1" parent="0" />
        <mxCell id="iuJwQ7CgvoNoUxmFj88v-1" value="Support Staff" style="shape=umlActor;verticalLabelPosition=bottom;verticalAlign=top;html=1;" vertex="1" parent="1">
          <mxGeometry x="80" y="360" width="30" height="60" as="geometry" />
        </mxCell>
        <mxCell id="iuJwQ7CgvoNoUxmFj88v-2" value="ECS" style="whiteSpace=wrap;html=1;aspect=fixed;" vertex="1" parent="1">
          <mxGeometry x="310" y="70" width="370" height="370" as="geometry" />
        </mxCell>
        <mxCell id="iuJwQ7CgvoNoUxmFj88v-3" value="developer/Tester" style="shape=umlActor;verticalLabelPosition=bottom;verticalAlign=top;html=1;" vertex="1" parent="1">
          <mxGeometry x="80" y="100" width="30" height="60" as="geometry" />
        </mxCell>
        <mxCell id="iuJwQ7CgvoNoUxmFj88v-5" value="Respondent" style="shape=umlActor;verticalLabelPosition=bottom;verticalAlign=top;html=1;" vertex="1" parent="1">
          <mxGeometry x="80" y="220" width="30" height="60" as="geometry" />
        </mxCell>
        <mxCell id="iuJwQ7CgvoNoUxmFj88v-6" value="001 Deployment" style="ellipse;whiteSpace=wrap;html=1;" vertex="1" parent="1">
          <mxGeometry x="350" y="110" width="120" height="80" as="geometry" />
        </mxCell>
        <mxCell id="iuJwQ7CgvoNoUxmFj88v-11" value="002 ECS processing" style="ellipse;whiteSpace=wrap;html=1;" vertex="1" parent="1">
          <mxGeometry x="350" y="210" width="120" height="80" as="geometry" />
        </mxCell>
        <mxCell id="iuJwQ7CgvoNoUxmFj88v-13" value="ECS Processor" style="whiteSpace=wrap;html=1;aspect=fixed;" vertex="1" parent="1">
          <mxGeometry x="560" y="150" width="80" height="80" as="geometry" />
        </mxCell>
        <mxCell id="iuJwQ7CgvoNoUxmFj88v-19" value="" style="endArrow=none;html=1;" edge="1" parent="1" source="iuJwQ7CgvoNoUxmFj88v-3" target="iuJwQ7CgvoNoUxmFj88v-6">
          <mxGeometry width="50" height="50" relative="1" as="geometry">
            <mxPoint x="90" y="170" as="sourcePoint" />
            <mxPoint x="140" y="120" as="targetPoint" />
          </mxGeometry>
        </mxCell>
        <mxCell id="iuJwQ7CgvoNoUxmFj88v-22" value="" style="endArrow=none;html=1;exitX=1;exitY=0.5;exitDx=0;exitDy=0;" edge="1" parent="1" source="iuJwQ7CgvoNoUxmFj88v-11" target="iuJwQ7CgvoNoUxmFj88v-13">
          <mxGeometry width="50" height="50" relative="1" as="geometry">
            <mxPoint x="400" y="360" as="sourcePoint" />
            <mxPoint x="450" y="310" as="targetPoint" />
          </mxGeometry>
        </mxCell>
        <mxCell id="iuJwQ7CgvoNoUxmFj88v-23" value="" style="endArrow=none;html=1;" edge="1" parent="1" source="iuJwQ7CgvoNoUxmFj88v-5" target="iuJwQ7CgvoNoUxmFj88v-11">
          <mxGeometry width="50" height="50" relative="1" as="geometry">
            <mxPoint x="400" y="360" as="sourcePoint" />
            <mxPoint x="450" y="310" as="targetPoint" />
          </mxGeometry>
        </mxCell>
      </root>
    </mxGraphModel>
  </diagram>
</mxfile>
